<?xml version="1.0"?>
<svg xmlns="http://www.w3.org/2000/svg" id="outline" viewBox="0 0 512 512" width="512" height="512"><path d="M488,200h-9.223l-14.88593-89.31543A8,8,0,0,0,456,104H440V96a24,24,0,0,0-48,0v8H376a8,8,0,0,0-7.89111,6.68457L353.223,200H336a8.00008,8.00008,0,0,0-8,8v16a7.9984,7.9984,0,0,0,1.6001,4.7998L344.00024,248H305.544l-10.05323-26.80859A7.99938,7.99938,0,0,0,288,216H224a7.99938,7.99938,0,0,0-7.49072,5.19141L206.45605,248H167.99976l14.40014-19.2002A7.9984,7.9984,0,0,0,184,224V208a8.00008,8.00008,0,0,0-8-8H158.777l-14.88593-89.31543A8,8,0,0,0,136,104H120V96a24,24,0,0,0-48,0v8H56a8,8,0,0,0-7.89111,6.68457L33.223,200H24a8.00008,8.00008,0,0,0-8,8v16a7.9984,7.9984,0,0,0,1.6001,4.7998l24,32A7.99927,7.99927,0,0,0,48,264H64v16a7.99951,7.99951,0,0,0,5.93848,7.72949l110.56274,29.4834L170.45605,344H64a8.00008,8.00008,0,0,0-8,8v80a8.00008,8.00008,0,0,0,8,8H88a7.99943,7.99943,0,0,0,6.65625-3.5625L108.28125,416h295.4375l13.625,20.4375A7.99943,7.99943,0,0,0,424,440h24a8.00008,8.00008,0,0,0,8-8V352a8.00008,8.00008,0,0,0-8-8H341.544l-10.04517-26.78711,110.56274-29.4834A7.99951,7.99951,0,0,0,448,280V264h16a7.99927,7.99927,0,0,0,6.3999-3.2002l24-32A7.9984,7.9984,0,0,0,496,224V208A8.00008,8.00008,0,0,0,488,200ZM408,96a8,8,0,0,1,16,0v8H408Zm-25.22314,24H392v16h16V120h16v16h16V120h9.22314l13.3332,80H369.44366ZM88,96a8,8,0,0,1,16,0v8H88ZM62.77686,120H72v16H88V120h16v16h16V120h9.22314l13.3332,80H49.44366ZM32,221.333V216H168v5.333L148,248H52Zm48,52.52051V264H200.45605l-14.30987,38.15967ZM440,424H428.28125l-13.625-20.4375A7.99943,7.99943,0,0,0,408,400H104a7.99943,7.99943,0,0,0-6.65625,3.5625L83.71875,424H72V360H440ZM187.544,344l42-112h52.9121l42,112ZM432,273.85352,325.85382,302.15967,311.544,264H432ZM480,221.333,460,248H364l-20-26.667V216H480Z"/></svg>
