<svg id="Capa_1" enable-background="new 0 0 512 512" height="512" viewBox="0 0 512 512" width="512" xmlns="http://www.w3.org/2000/svg"><g><path d="m366.076 311.418c12.441-6.104 22.821-15.955 29.79-28.624 18.124-32.95 2.117-62.634 2.033-63.057-4.792-10.327-8.011-21.466-9.619-33.123 1.089-3.148 1.689-6.523 1.689-10.037v-29.12c0-4.65-1.042-9.059-2.895-13.016l-.001-3.37c0-25.19-7.166-49.659-20.724-70.76-2.239-3.485-6.881-4.496-10.363-2.256-3.485 2.238-4.495 6.879-2.256 10.363 9.863 15.352 15.895 32.723 17.734 50.811-3.767-1.646-7.92-2.565-12.287-2.565h-12.275c-7.091-38.48-54.798-53.238-82.353-25.262-17.668 17.94-38.82 9.887-65.336 11.867-15.041 0-27.891 9.555-32.8 22.914h-5.673c-7.756 0-14.939 2.486-20.811 6.692l.001-1.805c-.001-64.001 52.068-116.07 116.07-116.07 27.601 0 54.346 9.853 75.308 27.744 3.152 2.688 7.886 2.312 10.574-.836 2.688-3.151 2.314-7.885-.836-10.574-23.676-20.206-53.879-31.334-85.046-31.334-72.273 0-131.071 58.798-131.071 131.068-.002 4.985-.011 27.703-.016 38.552-.011 29.022-10.973 50.32-11.153 50.858-9.198 20.134-8.332 42.847 2.375 62.315 6.968 12.669 17.348 22.521 29.79 28.624-61.607 19.61-104.708 77.267-104.708 143.219v26.173c0 17.198 13.992 31.19 31.191 31.19h367.184c17.199 0 31.191-13.992 31.191-31.19v-26.173c0-65.95-43.1-123.608-104.707-143.218zm-18.359-127.874c.001-.038.001-.075.001-.113v-51.766h11.458c8.708 0 15.792 7.084 15.792 15.792v29.12c0 8.708-7.084 15.793-15.792 15.793h-12.024c.32-2.913.52-5.855.565-8.826zm-3.5 23.826h9.727v13.834c0 6.081-4.947 11.028-11.029 11.028h-10.09c5.069-7.732 8.891-16.083 11.392-24.862zm-164.935-69.171c0-10.988 8.94-19.929 19.93-19.929 24.486-2.217 52.592 7.45 76.023-16.342 20.631-20.949 56.481-6.899 57.454 22.43 0 .013-.001.026-.001.04l.008.234c.041 1.6.005-7.58.022 58.739-.08 5.056-.655 10.021-1.681 14.856-.02.088-.038.177-.055.267-1.784 8.26-4.927 16.128-9.351 23.388-4.166-3.635-9.605-5.844-15.555-5.844h-23.435c-13.064 0-23.693 10.629-23.693 23.694 0 7.345 3.359 13.92 8.622 18.269-3.82.583-7.688.886-11.57.886-20.497 0-39.61-8.032-53.868-22.094-12.898-12.721-20.731-29.252-22.472-47.081-.006-.069-.01-.138-.018-.207-.193-2.031-.327-4.074-.36-6.134zm135.37 102.899c-.658 4.146-4.248 7.329-8.576 7.329-10.777 0-16.573 0-23.435 0-4.794 0-8.693-3.9-8.693-8.694s3.899-8.694 8.693-8.694h23.435c4.328 0 7.918 3.183 8.576 7.329.171 1.084.114 1.735 0 2.73zm-3.008 72.654c-12.497 18.275-33.115 29.324-55.644 29.324-22.53 0-43.149-11.05-55.646-29.326 10.175-5.37 16.924-16.046 16.924-28.025v-20.369c11.978 5.584 25.131 8.531 38.722 8.531 13.383 0 26.646-2.956 38.722-8.58v20.418c0 11.982 6.751 22.66 16.922 28.027zm-171.728-151.917c.099-11.402 9.398-20.65 20.823-20.65h3.543v41.665h-3.543c-5.565 0-10.798-2.168-14.732-6.104-3.891-3.892-6.044-9.055-6.091-14.552zm-10.638 113.729c-13.965-25.388-1.612-49.31-1.571-49.513 5.206-11.217 8.8-23.425 10.68-36.033 6.328 5.071 14.126 7.831 22.353 7.831h4.886c3.222 18.755 12.174 36.012 25.974 49.624 3.357 3.311 6.931 6.323 10.68 9.043v29.209c0 17.555-19.727 16.973-21.777 17.967-1.472-.112-5.235.097-11.646-.782-16.871-2.319-31.296-12.286-39.579-27.346zm200.896 221.436h-148.348v-58.928c0-4.143-3.357-7.5-7.5-7.5s-7.5 3.357-7.5 7.5v58.928h-42.556v-37.514c0-4.143-3.357-7.5-7.5-7.5s-7.5 3.357-7.5 7.5v37.514h-36.862c-8.928 0-16.191-7.263-16.191-16.19v-26.173c0-64.753 46.151-120.633 109.736-132.869l11.55-2.223c-7.005 18.014-10.677 37.34-10.677 56.659v26.796c0 4.143 3.357 7.5 7.5 7.5s7.5-3.357 7.5-7.5v-26.796c0-16.984 3.144-33.974 9.142-49.874 15.454 19.881 39.215 31.746 65.031 31.746 26.064 0 50.032-12.095 65.473-32.322 5.708 15.56 8.701 32.173 8.701 48.712v122.534zm1.325-193.307c-.101-.019-6.814-1.307-8.25-1.588-7.838-1.508-13.527-8.396-13.527-16.379v-22.58c8.827-1.369 16.053-7.63 18.825-15.913h14.367c14.353 0 26.029-11.676 26.029-26.028v-15.431c2.515-.844 4.886-2.002 7.066-3.431 3.302 13.501 7.564 21.856 8.587 24.369 7.208 15.777 6.524 33.584-1.875 48.854-8.282 15.059-22.708 25.025-39.577 27.345-6.397.877-10.5.693-11.645.782zm124.284 177.117c0 8.928-7.264 16.19-16.191 16.19h-36.862v-37.514c0-4.143-3.357-7.5-7.5-7.5s-7.5 3.357-7.5 7.5v37.514h-42.557v-122.534c0-18.612-3.417-37.312-9.947-54.78l10.82 2.082c63.585 12.236 109.736 68.116 109.736 132.869v26.173z"/></g></svg>