<svg id="Layer_1" enable-background="new 0 0 512 512" height="512" viewBox="0 0 512 512" width="512" xmlns="http://www.w3.org/2000/svg"><g><path d="m483.687 259.454h-43.042v-116.299c0-15.475-12.59-28.064-28.064-28.064h-64.771v-27.882c0-15.003-12.206-27.208-27.208-27.208h-293.394c-15.002 0-27.208 12.205-27.208 27.208v11.997c0 4.143 3.358 7.5 7.5 7.5s7.5-3.357 7.5-7.5v-11.997c0-6.731 5.477-12.208 12.208-12.208h293.393c6.731 0 12.208 5.477 12.208 12.208v236.213h-317.809v-189.051c0-4.143-3.358-7.5-7.5-7.5s-7.5 3.357-7.5 7.5v254.23c0 15.003 12.206 27.208 27.208 27.208h17.236c3.771 20.56 21.821 36.189 43.454 36.189s39.683-15.629 43.454-36.189h119.307c4.142 0 7.5-3.357 7.5-7.5s-3.358-7.5-7.5-7.5h-119.14c-3.369-21.04-21.647-37.167-43.622-37.167s-40.252 16.128-43.621 37.168h-17.068c-6.731 0-12.208-5.477-12.208-12.208v-50.18h317.809v62.388h-47.749c-4.142 0-7.5 3.357-7.5 7.5s3.358 7.5 7.5 7.5h97.266c3.771 20.56 21.821 36.189 43.453 36.189s39.683-15.629 43.454-36.189h14.702c15.475 0 28.064-12.59 28.064-28.064v-99.978c.001-15.613-12.7-28.314-28.312-28.314zm-395.79 119.189c16.089 0 29.178 13.089 29.178 29.178s-13.089 29.179-29.178 29.179-29.178-13.09-29.178-29.179 13.09-29.178 29.178-29.178zm337.883 58.356c-16.089 0-29.178-13.09-29.178-29.179s13.089-29.178 29.178-29.178 29.178 13.089 29.178 29.178-13.089 29.179-29.178 29.179zm71.22-108.567h-19.959c-4.135 0-7.5-3.364-7.5-7.5s3.364-7.5 7.5-7.5h19.959zm0-30h-19.959c-12.406 0-22.5 10.094-22.5 22.5s10.093 22.5 22.5 22.5h19.959v44.313c0 7.204-5.861 13.064-13.064 13.064h-14.534c-3.369-21.04-21.647-37.167-43.622-37.167s-40.252 16.127-43.621 37.167h-34.35v-270.718h64.771c7.204 0 13.064 5.86 13.064 13.064v1.747h-50.213c-4.142 0-7.5 3.357-7.5 7.5v114.552c0 4.143 3.358 7.5 7.5 7.5h108.255c7.341 0 13.313 5.973 13.313 13.313v10.665zm-71.355-138.53v99.552h-42.713v-99.552z"/><path d="m392.772 298.432h-17.34c-4.142 0-7.5 3.357-7.5 7.5s3.358 7.5 7.5 7.5h17.34c4.142 0 7.5-3.357 7.5-7.5s-3.358-7.5-7.5-7.5z"/><path d="m217.895 182.443c4.142 0 7.5-3.357 7.5-7.5s-3.358-7.5-7.5-7.5h-29.982c-4.142 0-7.5 3.357-7.5 7.5v59.983c0 4.143 3.358 7.5 7.5 7.5h29.982c4.142 0 7.5-3.357 7.5-7.5s-3.358-7.5-7.5-7.5h-22.482v-14.991h22.482c4.142 0 7.5-3.357 7.5-7.5s-3.358-7.5-7.5-7.5h-22.482v-14.992z"/><path d="m276.877 182.443c4.142 0 7.5-3.357 7.5-7.5s-3.358-7.5-7.5-7.5h-29.982c-4.142 0-7.5 3.357-7.5 7.5v59.983c0 4.143 3.358 7.5 7.5 7.5h29.982c4.142 0 7.5-3.357 7.5-7.5s-3.358-7.5-7.5-7.5h-22.482v-14.991h22.482c4.142 0 7.5-3.357 7.5-7.5s-3.358-7.5-7.5-7.5h-22.482v-14.992z"/><path d="m100.913 182.443c4.142 0 7.5-3.357 7.5-7.5s-3.358-7.5-7.5-7.5h-29.982c-4.142 0-7.5 3.357-7.5 7.5v59.983c0 4.143 3.358 7.5 7.5 7.5s7.5-3.357 7.5-7.5v-22.491h22.482c4.142 0 7.5-3.357 7.5-7.5s-3.358-7.5-7.5-7.5h-22.482v-14.992z"/><path d="m166.413 204.936v-29.992c0-4.143-3.358-7.5-7.5-7.5h-29.982c-4.142 0-7.5 3.357-7.5 7.5v59.983c0 4.143 3.358 7.5 7.5 7.5s7.5-3.357 7.5-7.5v-20.195l16.242 24.356c1.445 2.168 3.823 3.34 6.247 3.34 1.43 0 2.875-.408 4.154-1.261 3.446-2.299 4.377-6.955 2.079-10.401l-12.224-18.33h5.984c4.142 0 7.5-3.358 7.5-7.5zm-15-7.5h-14.982v-14.992h14.982z"/></g></svg>