<svg height="512" viewBox="0 0 74 74" width="512" xmlns="http://www.w3.org/2000/svg"><g id="line_icons" data-name="line icons"><path d="m22.613 37.1a1.012 1.012 0 0 1 -.3-.047l-18.265-5.792a1 1 0 0 1 -.7-.953v-21.515a1 1 0 0 1 1.3-.953l18.263 5.793a1 1 0 0 1 .7.953v21.514a1 1 0 0 1 -1 1zm-17.262-7.524 16.262 5.158v-19.416l-16.262-5.159z"/><path d="m22.613 15.586a1.007 1.007 0 0 1 -.3-.047l-18.265-5.793a1 1 0 0 1 0-1.906l18.263-5.793a.992.992 0 0 1 .605 0l18.262 5.793a1 1 0 0 1 0 1.906l-18.262 5.793a1.014 1.014 0 0 1 -.303.047zm-14.955-6.793 14.955 4.744 14.954-4.744-14.954-4.744z"/><path d="m22.613 37.1a1 1 0 0 1 -1-1v-21.514a1 1 0 0 1 .7-.953l18.259-5.793a1 1 0 0 1 1.3.953v21.515a1 1 0 0 1 -.7.953l-18.256 5.793a1.019 1.019 0 0 1 -.303.046zm1-21.783v19.417l16.262-5.158v-19.417z"/><path d="m51.387 72a1.019 1.019 0 0 1 -.3-.047l-18.265-5.793a1 1 0 0 1 -.7-.953v-21.515a1 1 0 0 1 1.3-.953l18.261 5.793a1 1 0 0 1 .7.953v21.515a1 1 0 0 1 -1 1zm-17.262-7.525 16.262 5.159v-19.417l-16.262-5.158z"/><path d="m51.387 50.485a.983.983 0 0 1 -.3-.047l-18.265-5.792a1 1 0 0 1 0-1.907l18.262-5.793a1.007 1.007 0 0 1 .6 0l18.263 5.793a1 1 0 0 1 0 1.907l-18.258 5.792a.977.977 0 0 1 -.302.047zm-14.954-6.793 14.954 4.744 14.955-4.744-14.955-4.743z"/><path d="m51.387 72a1 1 0 0 1 -1-1v-21.515a1 1 0 0 1 .7-.953l18.263-5.793a1 1 0 0 1 1.3.953v21.515a1 1 0 0 1 -.7.953l-18.261 5.793a1.012 1.012 0 0 1 -.302.047zm1-21.783v19.417l16.262-5.159v-19.416z"/><path d="m26.863 68.875a.993.993 0 0 1 -.311-.051 33.431 33.431 0 0 1 -23.052-31.787 1 1 0 0 1 1-1 1 1 0 0 1 1 1 31.435 31.435 0 0 0 21.675 29.887 1 1 0 0 1 -.312 1.951z"/><path d="m69.484 38.41h-.006a1 1 0 0 1 -.994-1.007c0-.083.005-.164.01-.246l.006-.157a31.593 31.593 0 0 0 -22.995-30.329 1 1 0 0 1 .539-1.926 33.6 33.6 0 0 1 24.456 32.255c0 .09 0 .179-.01.268l-.006.149a1 1 0 0 1 -1 .993z"/></g></svg>